<?xml version="1.0" standalone="no"?>
<!DOCTYPE svg PUBLIC "-//W3C//DTD SVG 20010904//EN"
 "http://www.w3.org/TR/2001/REC-SVG-20010904/DTD/svg10.dtd">
<svg version="1.0" xmlns="http://www.w3.org/2000/svg"
 width="2552.000000pt" height="2552.000000pt" viewBox="0 0 2552.000000 2552.000000"
 preserveAspectRatio="xMidYMid meet">
<metadata>
Created by potrace 1.11, written by Peter Selinger 2001-2013
</metadata>
<g transform="translate(0.000000,2552.000000) scale(0.100000,-0.100000)"
fill="#000000" stroke="none">
<path d="M2157 14993 c-23 -7 -56 -25 -73 -40 -58 -54 -58 -54 -60 -473 -2
-212 -3 -388 -3 -392 -1 -4 -70 -8 -153 -10 -176 -3 -208 -14 -254 -79 -24
-36 -28 -51 -32 -142 -5 -120 7 -173 49 -222 44 -49 105 -65 251 -63 65 1 120
-1 123 -3 2 -3 5 -376 6 -830 0 -453 4 -849 9 -879 5 -30 11 -71 13 -90 21
-165 116 -386 221 -515 220 -270 547 -412 959 -416 103 -1 178 22 219 68 30
32 45 117 42 236 -4 186 -42 234 -199 251 -116 13 -141 17 -220 41 -103 32
-161 66 -236 140 -89 88 -147 215 -174 380 -4 22 -9 392 -11 823 -3 653 -1
784 10 788 8 3 153 6 322 7 333 3 340 4 391 59 40 43 53 91 53 197 0 88 -3
104 -28 152 -49 94 -46 94 -424 97 l-326 3 0 388 c-1 412 -2 425 -49 478 -39
45 -87 56 -240 57 -89 1 -159 -3 -186 -11z"/>
<path d="M7328 14185 c-2 -1 -32 -6 -68 -9 -199 -21 -451 -87 -615 -162 -33
-15 -62 -28 -65 -29 -15 -4 -116 -57 -155 -82 -58 -36 -95 -104 -89 -165 5
-63 88 -221 137 -263 76 -65 148 -61 310 19 242 118 429 166 662 167 385 3
615 -168 686 -506 13 -62 23 -285 13 -285 -109 -1 -482 -11 -519 -15 -27 -2
-84 -7 -125 -10 -95 -8 -119 -11 -260 -35 -162 -28 -170 -29 -223 -45 -26 -8
-50 -14 -52 -14 -14 1 -210 -64 -252 -83 -26 -12 -50 -22 -53 -22 -27 -7 -182
-98 -243 -145 -167 -126 -265 -261 -325 -445 -64 -193 -62 -418 4 -617 70
-212 250 -411 473 -524 60 -30 213 -84 282 -99 106 -23 315 -34 409 -21 19 2
57 7 84 11 69 9 219 59 301 101 136 68 301 203 397 323 54 68 122 171 137 208
20 48 29 39 20 -20 -14 -87 -13 -378 1 -425 16 -54 65 -101 121 -117 57 -16
281 -14 333 3 48 17 73 41 98 98 20 45 20 66 20 1037 0 1081 -1 1092 -37 1269
-84 401 -302 667 -667 811 -67 26 -234 69 -318 81 -44 7 -416 15 -422 10z
m826 -1849 c-2 -119 -4 -144 -25 -260 -11 -63 -63 -212 -100 -286 -94 -190
-279 -374 -447 -444 -114 -47 -160 -57 -283 -61 -112 -3 -197 10 -292 47 -74
28 -174 96 -205 139 -7 10 -18 24 -25 31 -59 59 -106 208 -101 317 8 152 55
260 156 357 45 44 130 107 148 109 3 0 14 6 25 12 135 74 401 133 675 148 63
4 116 8 117 9 1 0 82 2 180 2 l179 2 -2 -122z"/>
<path d="M10680 14179 c-243 -30 -458 -111 -648 -245 -55 -39 -213 -189 -266
-254 -27 -32 -86 -128 -86 -139 0 -6 -4 -11 -8 -11 -10 0 -76 -137 -116 -240
-23 -59 -60 -185 -71 -242 -8 -39 -25 -132 -29 -158 -25 -148 -25 -525 -1
-620 2 -8 6 -37 10 -65 3 -27 15 -88 26 -135 126 -520 424 -892 851 -1064 259
-104 592 -131 853 -71 260 61 500 236 627 457 18 31 39 60 46 62 7 3 11 2 9
-2 -12 -19 -19 -147 -22 -362 -4 -357 -40 -507 -160 -675 -45 -64 -136 -155
-154 -155 -6 0 -11 -4 -11 -8 0 -19 -212 -125 -274 -138 -10 -2 -33 -8 -50
-13 -144 -45 -456 -58 -641 -26 -126 22 -207 43 -334 86 -206 71 -257 72 -317
11 -19 -19 -34 -40 -34 -45 0 -6 -6 -18 -13 -26 -25 -30 -78 -186 -79 -232 -1
-91 43 -137 194 -198 290 -118 744 -179 1083 -146 340 33 654 145 879 315 91
68 214 190 273 271 135 187 225 435 250 684 9 95 10 3147 1 3188 -15 61 -65
106 -136 122 -55 12 -265 8 -310 -6 -51 -15 -97 -59 -113 -106 -7 -22 -10 -93
-8 -193 l4 -158 -19 31 c-110 185 -254 317 -439 402 -72 33 -155 63 -192 71
-11 2 -40 8 -65 14 -25 6 -61 13 -80 16 -60 9 -362 11 -430 3z m480 -545 c203
-34 358 -118 483 -262 15 -18 27 -36 27 -40 0 -5 8 -17 18 -28 59 -65 140
-299 159 -464 2 -25 8 -71 12 -103 13 -95 3 -436 -14 -497 -2 -8 -7 -35 -10
-60 -11 -83 -82 -274 -133 -360 -110 -186 -256 -295 -469 -351 -103 -28 -311
-30 -430 -6 -315 66 -551 294 -662 642 -53 164 -66 269 -65 510 1 183 8 240
48 405 24 94 90 228 158 318 57 75 104 120 177 170 61 42 179 95 237 106 10 2
39 9 64 15 65 15 82 17 205 18 61 1 148 -5 195 -13z"/>
<path d="M18775 14175 c-44 -8 -89 -16 -100 -18 -55 -13 -113 -29 -140 -39
-89 -32 -142 -53 -156 -65 -8 -7 -21 -13 -29 -13 -7 0 -64 -34 -127 -75 -184
-121 -369 -324 -448 -492 -11 -24 -23 -43 -28 -43 -4 0 -4 37 0 83 4 45 7 168
7 272 0 182 -1 192 -24 233 -26 46 -66 76 -117 87 -18 3 -95 7 -172 7 -126 0
-144 -2 -188 -24 -38 -19 -53 -34 -73 -73 l-25 -50 -1 -1468 c-2 -1620 -6
-1522 62 -1584 45 -41 76 -47 259 -47 193 0 233 14 278 99 21 40 21 48 22 805
1 421 5 783 8 805 4 22 9 56 11 76 18 146 93 342 186 484 50 75 78 110 161
194 114 116 248 190 470 260 71 22 290 33 389 19 109 -16 215 -67 291 -139 87
-83 145 -234 168 -434 5 -44 9 -508 10 -1030 1 -523 4 -964 7 -980 7 -43 29
-87 56 -112 43 -39 96 -49 261 -48 144 1 158 3 203 26 36 19 54 36 72 71 l24
47 0 1048 c-1 576 -3 1073 -6 1103 -7 68 -15 121 -27 185 -6 28 -12 61 -15 75
-11 59 -59 191 -95 265 -97 194 -225 315 -433 410 -42 19 -76 32 -76 30 0 -2
-12 0 -27 6 -123 48 -469 71 -638 44z"/>
<path d="M22329 14186 c-2 -2 -34 -6 -70 -10 -309 -29 -666 -176 -917 -379
-70 -57 -252 -251 -297 -318 -27 -41 -52 -76 -55 -79 -16 -16 -130 -241 -135
-268 -2 -11 -10 -33 -18 -49 -15 -30 -67 -218 -73 -268 -2 -16 -6 -41 -9 -55
-23 -112 -23 -434 1 -545 2 -11 6 -31 8 -45 21 -124 72 -283 133 -410 26 -52
47 -97 48 -100 1 -5 36 -63 55 -90 94 -140 116 -166 230 -281 71 -72 266 -229
284 -229 3 0 22 -12 43 -26 33 -22 85 -49 213 -107 45 -21 236 -84 275 -90 17
-3 50 -10 75 -15 25 -6 72 -14 105 -17 33 -4 69 -9 80 -11 24 -5 298 -5 340 0
17 2 57 7 89 10 242 28 540 137 741 271 407 272 666 677 740 1155 33 213 21
485 -30 680 -36 138 -114 341 -150 390 -6 8 -21 35 -35 60 -22 42 -87 139
-100 150 -4 3 -13 15 -21 27 -59 86 -287 299 -370 345 -17 9 -38 23 -47 31
-56 47 -306 159 -447 201 -84 24 -116 31 -255 58 -51 9 -423 22 -431 14z m386
-561 c39 -9 77 -18 85 -19 43 -6 294 -123 310 -144 3 -4 23 -20 45 -36 226
-166 395 -461 432 -751 12 -96 6 -333 -11 -415 -24 -120 -27 -134 -33 -150 -4
-8 -7 -18 -7 -22 -1 -3 -4 -10 -8 -14 -5 -4 -8 -14 -8 -23 0 -9 -20 -55 -43
-103 -172 -344 -496 -573 -867 -613 -81 -9 -210 -9 -264 1 -23 4 -52 8 -66 9
-110 11 -354 116 -454 196 -38 31 -124 109 -145 133 -14 15 -37 40 -50 55 -68
73 -157 233 -198 356 -89 263 -88 574 4 828 112 312 352 554 666 671 37 14 69
25 72 25 3 1 16 3 28 7 145 36 380 40 512 9z"/>
<path d="M5548 14135 c-2 -2 -22 -5 -45 -9 -64 -8 -190 -53 -263 -93 -236
-127 -445 -377 -560 -668 -17 -44 -34 -82 -36 -85 -3 -2 -1 32 3 75 4 44 8
202 8 350 0 269 0 270 -25 313 -27 47 -66 76 -119 87 -35 7 -283 9 -311 2 -53
-13 -120 -63 -120 -89 0 -8 -6 -20 -12 -26 -10 -10 -13 -322 -15 -1482 -1
-885 2 -1483 8 -1504 19 -69 73 -123 134 -135 32 -6 296 -5 338 1 48 8 99 47
123 95 17 36 18 79 19 688 1 358 5 682 9 720 13 125 16 149 32 230 23 114 77
275 128 380 93 189 204 325 343 417 136 90 227 118 429 133 108 7 166 31 199
81 26 40 29 59 32 211 5 192 -13 250 -90 290 -27 13 -198 28 -209 18z"/>
<path d="M13522 14108 c-81 -9 -124 -36 -154 -96 l-23 -47 1 -1045 c0 -575 4
-1076 8 -1115 19 -185 62 -364 117 -485 84 -183 216 -322 389 -411 36 -18 67
-34 70 -34 3 0 10 -3 15 -7 20 -13 202 -57 260 -64 33 -3 69 -8 80 -10 28 -6
265 -5 295 0 14 2 43 7 66 10 386 49 800 338 975 678 18 38 38 68 43 68 4 0 5
-8 1 -17 -5 -10 -10 -131 -12 -270 -4 -271 -2 -283 51 -341 43 -48 71 -55 228
-57 165 -1 220 10 263 52 61 60 57 -37 57 1554 0 801 -3 1476 -7 1499 -5 32
-18 54 -50 85 -52 53 -81 59 -272 57 -150 -2 -195 -12 -239 -53 -53 -50 -53
-43 -57 -879 -2 -426 -7 -791 -11 -810 -4 -19 -14 -65 -21 -101 -41 -196 -135
-395 -257 -546 -158 -195 -411 -330 -657 -350 -263 -22 -418 21 -546 151 -79
80 -116 168 -161 386 -4 19 -9 481 -11 1025 -2 636 -7 1009 -14 1042 -8 43
-18 59 -51 88 -23 19 -55 37 -72 40 -49 9 -235 11 -304 3z"/>
</g>
</svg>
